<svg width="42" height="42" viewBox="0 0 42 42" fill="none" xmlns="http://www.w3.org/2000/svg">
<path d="M34.0913 9.92133L35.0801 8.87983C35.5811 8.35248 35.6206 7.62738 35.1196 7.12641L34.7769 6.77045C34.3286 6.32221 33.5771 6.38813 33.0894 6.87592L32.061 7.87787L34.0913 9.92133ZM18.4819 23.9487L21.1846 22.8149L33.1289 10.8705L31.0986 8.85346L19.1543 20.811L17.9678 23.4213C17.8359 23.7246 18.1787 24.0673 18.4819 23.9487ZM13.4722 32.7949H28.8311C31.3623 32.7949 32.852 31.3183 32.852 28.497V14.5751L30.2153 17.1987V28.2597C30.2153 29.5253 29.543 30.1581 28.6597 30.1581H13.6436C12.4307 30.1581 11.7715 29.5253 11.7715 28.2597V13.6127C11.7715 12.3471 12.4307 11.7143 13.6436 11.7143H24.8364L27.46 9.07758H13.4722C10.6245 9.07758 9.13477 10.5541 9.13477 13.3754V28.497C9.13477 31.3183 10.6245 32.7949 13.4722 32.7949Z" fill="#1A1B22"/>
</svg>
